<svg fill="none" xmlns="http://www.w3.org/2000/svg" viewBox="0 0 124 45">
    <g clip-path="url(#clip0)">
        <path d="M32.3 8.485c-2.29.079-4.288 1.342-5.776 3.086-1.647 1.915-2.742 4.183-3.532 6.5-1.412-1.157-2.5-2.655-4.767-3.307-1.751-.503-3.59-.296-5.282.964-.8.598-1.352 1.502-1.615 2.354-.68 2.209.715 4.177 1.348 4.882l1.385 1.483c.285.291.973 1.05.636 2.137-.361 1.184-1.788 1.949-3.25 1.5-.655-.201-1.593-.688-1.383-1.372.087-.28.288-.492.396-.732.098-.21.145-.364.176-.458.267-.871-.099-2.006-1.033-2.295-.872-.268-1.764-.056-2.11 1.067-.393 1.275.218 3.59 3.488 4.596 3.83 1.18 7.07-.907 7.53-3.626.29-1.703-.48-2.97-1.889-4.597l-1.148-1.27c-.696-.695-.934-1.88-.215-2.79.608-.768 1.473-1.095 2.89-.71 2.069.56 2.99 1.996 4.528 3.154-.634 2.084-1.05 4.175-1.425 6.05l-.23 1.4c-1.1 5.766-1.94 8.933-4.121 10.751-.44.313-1.068.78-2.015.814-.497.015-.658-.327-.664-.476-.011-.348.282-.508.477-.664.292-.159.733-.423.702-1.268-.031-.998-.858-1.864-2.053-1.824-.896.03-2.26.872-2.209 2.415.053 1.594 1.538 2.787 3.777 2.712 1.197-.041 3.87-.527 6.504-3.658 3.066-3.59 3.924-7.705 4.57-10.716l.72-3.977c.398.048.827.08 1.293.092 3.818.08 5.727-1.897 5.756-3.336.02-.87-.57-1.729-1.398-1.708-.59.017-1.333.41-1.511 1.228-.175.802 1.215 1.526.128 2.231-.77.5-2.154.85-4.101.566l.354-1.958c.722-3.712 1.614-8.277 4.996-8.388.247-.012 1.148.01 1.17.607.005.198-.044.25-.277.706-.238.355-.328.66-.316 1.006.032.947.753 1.57 1.797 1.534 1.395-.046 1.795-1.404 1.772-2.102-.058-1.642-1.787-2.678-4.074-2.603z" fill="#FFC576"/>
        <circle cx="22.5" cy="22.5" r="21.5" stroke="#FFC576" stroke-width="2"/>
        <path d="M68.425 13.3c1.05 0 1.917.308 2.6.925.7.6 1.05 1.417 1.05 2.45 0 .8-.217 1.5-.65 2.1-.433.583-1.008 1.05-1.725 1.4-.633.3-1.867.733-3.7 1.3.933.4 1.617.975 2.05 1.725.45.733.675 1.575.675 2.525 0 1.033-.308 2.008-.925 2.925-.617.917-1.5 1.658-2.65 2.225-1.15.55-2.5.825-4.05.825-1.45 0-2.8-.25-4.05-.75-1.233-.517-2.217-1.242-2.95-2.175-.733-.95-1.1-2.05-1.1-3.3 0-1.1.267-2.025.8-2.775.55-.767 1.175-1.342 1.875-1.725.7-.4 1.35-.675 1.95-.825-.817-.35-1.442-.817-1.875-1.4-.433-.583-.65-1.192-.65-1.825 0-.55.158-1.058.475-1.525.333-.483.817-.867 1.45-1.15.65-.3 1.417-.45 2.3-.45 1.117 0 1.983.25 2.6.75.3.25.525.533.675.85.167.3.25.592.25.875 0 .4-.142.725-.425.975a1.49 1.49 0 01-.975.35c-.35 0-.658-.108-.925-.325-.25-.233-.375-.542-.375-.925 0-.367.125-.675.375-.925.25-.267.567-.417.95-.45-.083-.217-.3-.4-.65-.55-.333-.167-.75-.25-1.25-.25-.867 0-1.567.267-2.1.8-.533.517-.8 1.242-.8 2.175 0 1.117.425 2.067 1.275 2.85.583-.1 1.1-.15 1.55-.15.3 0 .542.05.725.15.183.1.275.242.275.425 0 .15-.067.267-.2.35-.117.083-.283.125-.5.125-.267 0-.542-.05-.825-.15-.283-.1-.617-.233-1-.4-2.167.65-3.25 2.017-3.25 4.1 0 1.117.292 2.083.875 2.9.583.817 1.383 1.442 2.4 1.875 1.017.417 2.158.625 3.425.625 1.183 0 2.275-.183 3.275-.55 1.017-.383 1.817-.917 2.4-1.6.6-.7.9-1.508.9-2.425 0-.667-.175-1.342-.525-2.025-.35-.683-1.017-1.217-2-1.6-1.3.4-2.258.717-2.875.95-.7.267-1.242.575-1.625.925-.383.333-.575.75-.575 1.25 0 .6.242 1.083.725 1.45.5.367 1.025.55 1.575.55.283 0 .592-.05.925-.15.333-.1.525-.233.575-.4a1.82 1.82 0 01-.825-.4c-.233-.2-.35-.492-.35-.875 0-.4.125-.717.375-.95.267-.233.6-.35 1-.35s.717.125.95.375c.25.25.375.575.375.975 0 .667-.308 1.192-.925 1.575s-1.3.575-2.05.575a3.488 3.488 0 01-2.175-.725c-.617-.5-.925-1.233-.925-2.2 0-.85.283-1.567.85-2.15.583-.6 1.45-1.1 2.6-1.5l1.775-.525c1-.283 1.833-.533 2.5-.75a17.44 17.44 0 001.825-.7c.8-.367 1.358-.742 1.675-1.125.317-.383.475-.808.475-1.275 0-.7-.292-1.292-.875-1.775-.567-.5-1.242-.75-2.025-.75-.417 0-.667.075-.75.225.217.1.383.267.5.5.133.217.2.433.2.65 0 .35-.142.642-.425.875-.267.233-.592.35-.975.35-.35 0-.658-.108-.925-.325-.267-.217-.4-.525-.4-.925 0-.6.275-1.033.825-1.3.567-.283 1.208-.425 1.925-.425zM123.75 10.18c-.005-.02-.018-.038-.024-.059-.015-.037-.026-.076-.045-.11-.013-.022-.033-.041-.049-.062-.021-.028-.038-.058-.063-.083-.021-.02-.046-.035-.069-.053-.026-.02-.048-.043-.077-.06l-8.46-4.87a.702.702 0 00-.703 0l-8.459 4.87c-.029.017-.052.04-.077.06-.023.018-.049.032-.07.053-.024.025-.042.055-.063.083-.016.02-.035.04-.048.063-.019.033-.032.072-.045.11-.008.019-.02.038-.024.059a.708.708 0 00-.025.184v9.25l-7.05 4.06V5.576a.699.699 0 00-.023-.184c-.005-.02-.018-.038-.025-.06-.014-.036-.025-.075-.045-.109-.013-.022-.032-.042-.048-.063-.021-.027-.039-.058-.063-.082-.021-.021-.047-.036-.07-.053-.025-.021-.048-.044-.077-.06L89.59.095a.702.702 0 00-.703 0l-8.46 4.87c-.028.016-.051.04-.077.06-.022.017-.048.032-.07.053-.023.024-.041.055-.062.082-.016.021-.035.04-.048.063-.02.034-.033.073-.046.11-.008.02-.019.038-.024.06a.703.703 0 00-.024.183v28.976c0 .252.135.486.353.611l16.92 9.742c.037.02.078.034.116.048.018.007.036.018.055.023a.688.688 0 00.361 0c.017-.005.031-.015.047-.02.042-.014.084-.029.123-.05l16.92-9.741a.703.703 0 00.353-.611v-9.251l8.106-4.668a.703.703 0 00.353-.611v-9.66a1.561 1.561 0 00-.032-.183zM97.687 33.74L90.65 29.76l7.39-4.255 8.108-4.667 7.043 4.054-5.167 2.95-10.337 5.9zm16.217-18.097v8.032l-2.961-1.704-4.09-2.355v-8.032l2.961 1.705 4.09 2.354zm.705-9.336l7.046 4.058-7.046 4.058-7.047-4.058 7.047-4.058zM92.895 26.84l-2.96 1.705v-17.69l4.09-2.356 2.96-1.704v17.689l-4.09 2.356zM89.23 1.521l7.047 4.057-7.047 4.058-7.046-4.058 7.046-4.058zm-7.756 5.275L84.435 8.5l4.09 2.355v18.912c0 .027.008.053.01.079.006.034.006.07.015.103v.002c.008.027.023.053.034.079.013.029.021.061.037.088 0 0 0 .002.002.002.014.024.035.045.053.068.02.026.036.052.058.074l.002.002c.02.019.045.034.068.051.025.02.048.042.075.058l.004.002c.001 0 .001.002.003.002l8.103 4.585v8.11l-15.516-8.928V6.796zm32.431 27.348l-15.51 8.93v-8.112l11.486-6.558 4.024-2.296v8.036zm8.459-14.528l-7.05 4.06v-8.032l4.091-2.355 2.961-1.705v8.032h-.002z" fill="#FFC576"/>
    </g>
    <defs>
        <clipPath id="clip0">
            <path fill="#fff" d="M0 0h123.782v45H0z"/>
        </clipPath>
    </defs>
</svg>
